<svg width="44" height="44" viewBox="0 0 44 44" fill="none" xmlns="http://www.w3.org/2000/svg">
<circle cx="22" cy="22" r="22" transform="rotate(-90 22 22)" fill="#FF9900"/>
<path d="M25.75 20.7695C26.0214 20.7695 26.2855 20.6812 26.5022 20.5178C26.719 20.3545 26.8767 20.125 26.9516 19.8641C27.0264 19.6032 27.0143 19.3251 26.917 19.0717C26.8198 18.8182 26.6427 18.6034 26.4125 18.4595L23.0537 15.0995C22.9376 14.9835 22.7998 14.8914 22.648 14.8287C22.4963 14.7659 22.3337 14.7336 22.1696 14.7337C22.0054 14.7337 21.8428 14.7661 21.6911 14.829C21.5395 14.8919 21.4017 14.984 21.2856 15.1002C21.1696 15.2163 21.0775 15.3542 21.0147 15.5059C20.952 15.6576 20.9197 15.8202 20.9197 15.9843C20.9198 16.1485 20.9522 16.3111 21.0151 16.4628C21.078 16.6144 21.1701 16.7522 21.2862 16.8683L22.6862 18.2683H13.25C12.9185 18.2683 12.6005 18.4 12.3661 18.6344C12.1317 18.8688 12 19.1868 12 19.5183C12 19.8498 12.1317 20.1677 12.3661 20.4022C12.6005 20.6366 12.9185 20.7683 13.25 20.7683H25.6875H25.75V20.7695Z" fill="black"/>
<path d="M18.25 23.2299C17.9786 23.2299 17.7145 23.3183 17.4978 23.4816C17.281 23.6449 17.1233 23.8744 17.0484 24.1353C16.9736 24.3962 16.9857 24.6744 17.083 24.9278C17.1802 25.1812 17.3573 25.3961 17.5875 25.5399L20.9463 28.8987C21.0616 29.0181 21.1995 29.1133 21.352 29.1788C21.5045 29.2443 21.6685 29.2788 21.8345 29.2802C22.0005 29.2817 22.1651 29.25 22.3187 29.1872C22.4723 29.1243 22.6119 29.0315 22.7292 28.9142C22.8466 28.7968 22.9394 28.6572 23.0023 28.5036C23.0651 28.35 23.0968 28.1854 23.0953 28.0194C23.0939 27.8534 23.0594 27.6894 22.9939 27.5369C22.9284 27.3844 22.8331 27.2465 22.7138 27.1312L21.3138 25.7299H30.75C31.0815 25.7299 31.3995 25.5982 31.6339 25.3638C31.8683 25.1294 32 24.8114 32 24.4799C32 24.1484 31.8683 23.8305 31.6339 23.596C31.3995 23.3616 31.0815 23.2299 30.75 23.2299H18.3125H18.25Z" fill="black"/>
</svg>
