<svg width="30" height="30" viewBox="0 0 30 30" fill="none" xmlns="http://www.w3.org/2000/svg">
<path d="M15 30C23.2843 30 30 23.2843 30 15C30 6.71573 23.2843 0 15 0C6.71573 0 0 6.71573 0 15C0 23.2843 6.71573 30 15 30Z" fill="white"/>
<path d="M22.5796 9.75734C22.3756 9.23184 22.1036 8.78671 21.6584 8.34158C21.2133 7.89644 20.7682 7.62442 20.2427 7.4204C19.7357 7.22256 19.1484 7.08655 18.3014 7.04946C17.4482 7.01236 17.1762 7 15 7C12.8238 7 12.5518 7.00618 11.6986 7.04946C10.8454 7.08655 10.2643 7.22256 9.75734 7.4204C9.23184 7.62442 8.78671 7.89644 8.34158 8.34158C7.89644 8.78671 7.62442 9.23184 7.4204 9.75734C7.22257 10.2643 7.08655 10.8516 7.04946 11.6986C7.01236 12.5518 7 12.8238 7 15C7 17.1762 7.00618 17.4482 7.04946 18.3014C7.08655 19.1546 7.22257 19.7357 7.4204 20.2427C7.62442 20.7682 7.89644 21.2133 8.34158 21.6584C8.78671 22.1036 9.23184 22.3756 9.75734 22.5796C10.2643 22.7774 10.8516 22.9134 11.6986 22.9505C12.5518 22.9876 12.8238 23 15 23C17.1762 23 17.4482 22.9938 18.3014 22.9505C19.1546 22.9134 19.7357 22.7774 20.2427 22.5796C20.7682 22.3756 21.2133 22.1036 21.6584 21.6584C22.1036 21.2133 22.3756 20.7682 22.5796 20.2427C22.7774 19.7357 22.9134 19.1484 22.9505 18.3014C22.9876 17.4482 23 17.1762 23 15C23 12.8238 22.9938 12.5518 22.9505 11.6986C22.9134 10.8454 22.7774 10.2643 22.5796 9.75734ZM21.51 18.2334C21.473 19.0124 21.3431 19.4389 21.2318 19.7172C21.0896 20.0881 20.9104 20.3601 20.6321 20.6383C20.3539 20.9165 20.0881 21.0896 19.711 21.238C19.4266 21.3493 19.0062 21.4791 18.2272 21.5162C17.3802 21.5533 17.1329 21.5657 14.9938 21.5657C12.8547 21.5657 12.6012 21.5595 11.7604 21.5162C10.9815 21.4791 10.5549 21.3493 10.2767 21.238C9.90572 21.0958 9.63369 20.9165 9.35549 20.6383C9.07728 20.3601 8.90417 20.0943 8.7558 19.7172C8.64451 19.4328 8.51468 19.0124 8.47759 18.2334C8.4405 17.3864 8.42813 17.1329 8.42813 15C8.42813 12.8671 8.43431 12.6074 8.47759 11.7666C8.51468 10.9876 8.64451 10.5611 8.7558 10.2828C8.89799 9.9119 9.07728 9.63988 9.35549 9.36167C9.63369 9.08346 9.89954 8.91036 10.2767 8.76198C10.5611 8.6507 10.9815 8.52087 11.7604 8.48377C12.6074 8.44668 12.8609 8.43431 14.9938 8.43431C17.1267 8.43431 17.3864 8.44049 18.2272 8.48377C19.0062 8.52087 19.4328 8.6507 19.711 8.76198C20.0819 8.90417 20.3539 9.08346 20.6321 9.36167C20.9104 9.63988 21.0835 9.90572 21.2318 10.2828C21.3431 10.5672 21.473 10.9876 21.51 11.7666C21.5471 12.6136 21.5595 12.8671 21.5595 15C21.5595 17.1329 21.5471 17.3926 21.51 18.2334Z" fill="black"/>
<path d="M14.9936 10.8887C12.7247 10.8887 10.8823 12.731 10.8823 15C10.8823 17.2689 12.7247 19.1112 14.9936 19.1112C17.2625 19.1112 19.1049 17.2689 19.1049 15C19.1049 12.731 17.2625 10.8887 14.9936 10.8887ZM14.9936 17.6707C13.5222 17.6707 12.3228 16.4775 12.3228 15C12.3228 13.5285 13.516 12.3292 14.9936 12.3292C16.4712 12.3292 17.6644 13.5224 17.6644 15C17.6644 16.4714 16.465 17.6707 14.9936 17.6707Z" fill="black"/>
<path d="M19.2659 11.6861C19.7951 11.6861 20.2242 11.257 20.2242 10.7278C20.2242 10.1986 19.7951 9.76953 19.2659 9.76953C18.7366 9.76953 18.3076 10.1986 18.3076 10.7278C18.3076 11.257 18.7366 11.6861 19.2659 11.6861Z" fill="black"/>
</svg>
