<?xml version="1.0" encoding="utf-8"?>
<!-- Generator: Adobe Illustrator 26.0.1, SVG Export Plug-In . SVG Version: 6.00 Build 0)  -->
<svg version="1.1" id="Layer_1" xmlns="http://www.w3.org/2000/svg" xmlns:xlink="http://www.w3.org/1999/xlink" x="0px" y="0px"
	 viewBox="0 0 1464 687" style="enable-background:new 0 0 1464 687;" xml:space="preserve">
<style type="text/css">
	.st0{fill:#D6D6D6;}
</style>
<g>
	<g>
		<path class="st0" d="M429.9,108.5V87.3V87h1.9h1.8v0.1v21.3v2.7h0.1l12.2-14.7c5.7-6.9,7.2-8.8,7.6-9.4V87h2.1h2.1v0.1
			c-0.4,0.5-2.7,3.4-7.9,9.8l-12.1,14.6l9.4,11.3c9.6,11.6,11.6,14.1,12.4,14.8v0.1h-2.5h-2.1v-0.1c-0.5-0.5-2.7-3.3-12.3-14.7
			l-8.8-10.5h-0.1v2.5v22.6v0.1h-1.7h-2v-0.2V115V108.5z"/>
		<path class="st0" d="M542.8,120.7c-5.5,13.5-6.8,16.5-6.9,16.9v0.1h-1.7h-2.1v-0.1c0.1-0.3,1.5-3.3,9.4-22.8l11.6-28.7h0.4
			l11.3,28.8c7.5,19.3,8.7,22.2,8.8,22.6v0.1h-2.1h-1.8v-0.1c-0.1-0.4-1.3-3.4-6.7-16.9H542.8z M561.7,117.5l-0.1-0.3
			c-6.7-17.5-7.5-19.7-8.4-22.4h-0.1c-0.9,2.7-1.9,5-8.8,22.4l-0.1,0.3H561.7z"/>
		<path class="st0" d="M689.6,138.4h-0.3c-13.9-17.4-21.7-27.3-26.3-33.2c-2.7-3.4-4.4-5.5-7.2-9.5h-0.1V115v22.6v0.1H654h-1.7v-0.1
			V115V86.3h0.3c14.3,18.1,22.3,28.3,26.9,34c2.5,3.2,4.2,5.4,6.6,8.7h0.1v-20.5V87.2V87h1.7h1.7v0.1v21.3V138.4z"/>
		<path class="st0" d="M784.3,90.4h-11.6h-4h-0.3V87h15.5h4.4h15.5v3.3h-0.3h-4.3h-11.3V115v22.6v0.1h-1.8h-1.9v-0.2V115V90.4z"/>
		<path class="st0" d="M928.2,112.2c0,14.2-10.7,26.3-25.9,26.3c-14.1,0-25.2-11.8-25.2-25.8c0-15,11.2-26.4,26.3-26.4
			C917.7,86.4,928.2,97.7,928.2,112.2L928.2,112.2z M924.2,112.4c0-12.8-9.3-22.7-21.7-22.7c-12,0-21.3,10.1-21.3,22.8
			c0,12.2,9.4,22.7,21.5,22.7C915.1,135.2,924.2,125,924.2,112.4L924.2,112.4z"/>
		<path class="st0" d="M1008.6,108.5V87.3v-0.1c0.5,0,1.3-0.1,2.3-0.1c1.3-0.1,2.9-0.1,3.6-0.1c2.9,0,5.9,0.3,8.8,1.4
			c2.3,0.9,7.8,4.2,7.8,12c0,7.7-4.7,11.2-7.5,12.8c-1.3,0.8-3.1,1.5-4.7,1.9v0.1c0.5,0.5,1.2,1.4,14,17.5c1.6,2,3.8,4.7,4.2,5.1
			v0.1h-2.1h-1.6h-1.1c-3.9-4.9-8.6-11-17.5-22.3h-2.6v1v21.2v0.1h-1.8h-1.9v-0.1V115V108.5z M1027.2,100.4
			c0-6.6-5.1-10.1-12.2-10.1c-0.9,0-2.4,0.1-2.8,0.1v21.7c0.3,0.1,1.1,0.1,2,0.1c2,0,4.4-0.5,6.1-1.2
			C1023.7,109.5,1027.2,106.6,1027.2,100.4L1027.2,100.4z"/>
	</g>
	<g>
		<path class="st0" d="M325.8,522.5v-21.3v-0.1h10.5h10.8v3.4H347h-6.2h-11.4v19.7h11.5h5h0.1v1.7v1.6h-0.1H341h-11.6v20.8
			c0,0.1,0,0.1,0.1,0.1h13.8h4.5h0.1v3.4h-10.6h-11.5v-0.1V529V522.5z"/>
		<path class="st0" d="M438.4,526.2l-3.8-6.4c-8.8-15.1-10.6-18-11-18.5v-0.1h2.1h2.1v0.1c0.3,0.5,2,3.4,11.2,18.9
			c0.5,0.7,1,1.7,1.5,2.5h0.1c0.5-0.8,1-1.8,1.4-2.4c9.3-15.6,11-18.5,11.4-19v-0.1h2h2.1v0.1c-0.4,0.6-2,3.2-11,18l-4,6.6l2.9,5.1
			c10.5,18.2,11.6,20.2,11.9,20.7v0.1H455h-2v-0.1c-0.3-0.5-1.9-3.4-10.1-18.1c-0.8-1.4-1.7-2.9-2.4-4.2h-0.1
			c-0.7,1.2-1.6,2.7-2.1,3.8c-8.8,15.1-10.5,18-10.8,18.5v0.1h-2.1h-2v-0.1c0.3-0.5,1.9-3.3,11.8-20L438.4,526.2z"/>
		<path class="st0" d="M531.3,526.2c0-16.6,12.3-25.8,26.9-25.8c2.5,0,4.3,0.2,5.5,0.3c1.6,0.2,3.5,0.6,4.6,0.8
			c-0.1,1.2-0.1,3.2-0.1,3.6h-0.2c-0.8-0.3-1.9-0.5-2.9-0.7c-1.8-0.3-4-0.6-6.6-0.6c-14.1,0-23.2,8.5-23.2,22.6
			c0,13.5,9.9,22.7,22.7,22.7c2.6,0,4.9-0.3,6.8-0.6c1.1-0.3,1.9-0.6,2.9-0.9h0.1c0.1,1.3,0.1,2.5,0.1,3.5c-1.2,0.4-2.9,0.8-4.5,1
			c-1.8,0.3-4.1,0.5-6,0.5C543.8,552.5,531.3,543.2,531.3,526.2L531.3,526.2z"/>
		<path class="st0" d="M684.4,529v22.6v0.1h-1.7h-1.9v-0.1V529v-1.6h-28.1v1.6v22.6v0.1H651H649v-0.1V529v-6.5v-21.3v-0.1h1.9h1.8
			v0.1v21.3v1.6h28.1v-1.6v-21.3v-0.1h1.8h1.8v0.1v21.3V529z"/>
		<path class="st0" d="M772.7,534.7c-5.5,13.5-6.8,16.5-6.9,16.9v0.1h-1.7H762v-0.1c0.1-0.3,1.5-3.3,9.3-22.7l11.6-28.6h0.4
			l11.2,28.8c7.5,19.2,8.7,22.1,8.8,22.6v0.1h-2.1h-1.8v-0.1c-0.1-0.4-1.3-3.4-6.7-16.9H772.7z M791.5,531.5l-0.1-0.3
			c-6.7-17.5-7.5-19.7-8.4-22.4h-0.1c-0.9,2.7-1.9,5-8.8,22.4l-0.1,0.3H791.5z"/>
		<path class="st0" d="M918.4,552.4h-0.3c-13.8-17.3-21.6-27.3-26.2-33.1c-2.7-3.4-4.4-5.5-7.2-9.5h-0.1V529v22.6v0.1h-1.7h-1.7
			v-0.1V529v-28.7h0.3c14.3,18,22.3,28.2,26.8,33.9c2.5,3.2,4.2,5.4,6.6,8.7h0.1v-20.4v-21.3v-0.1h1.7h1.7v0.1v21.3V552.4z"/>
		<path class="st0" d="M998.6,526.2c0-16.7,12.5-25.9,26.8-25.9c2.7,0,4.7,0.1,6.8,0.5c1.9,0.3,3.6,0.7,4.9,1.1
			c-0.1,2.3-0.1,3.4-0.2,3.8h-0.1c-0.6-0.3-1.6-0.6-2.6-0.8c-2.2-0.5-5.3-1-8.3-1c-13.8,0-23.4,8.6-23.4,22.7
			c0,13.5,9.3,22.6,22.7,22.6c3.4,0,6.4-0.3,8.8-1v-2.2v-16.6v-0.1h1.8h1.9v0.1v14.2v0.9v6.1c-4.6,1.6-8.7,2-13,2
			C1009.8,552.5,998.6,542.7,998.6,526.2L998.6,526.2z"/>
		<path class="st0" d="M1119.6,522.5v-21.3v-0.1h10.5h10.8v3.4h-0.1h-6.2h-11.4v19.7h11.5h5h0.1v1.7v1.6h-0.1h-4.9h-11.6v20.8
			c0,0.1,0,0.1,0.1,0.1h13.8h4.5h0.1v3.4h-10.6h-11.5v-0.1V529V522.5z"/>
	</g>
	<polygon class="st0" points="747.4,321.4 812.1,414.1 785.9,414.1 734.2,340.3 682.7,414 656.3,414 721.2,321.6 656.3,228.9 
		682.9,228.9 734.4,302.7 786.2,228.9 812.1,228.9 	"/>
</g>
</svg>
