<svg width="30" height="30" viewBox="0 0 30 30" fill="none" xmlns="http://www.w3.org/2000/svg">
<path d="M15 30C23.2843 30 30 23.2843 30 15C30 6.71573 23.2843 0 15 0C6.71573 0 0 6.71573 0 15C0 23.2843 6.71573 30 15 30Z" fill="white"/>
<path fill-rule="evenodd" clip-rule="evenodd" d="M24 9.6573C23.3754 9.93844 22.7028 10.1285 21.9974 10.2134C22.7177 9.77661 23.2706 9.08387 23.531 8.25883C22.8565 8.66334 22.1112 8.95761 21.3148 9.11537C20.6803 8.4288 19.7732 8 18.7694 8C16.8446 8 15.283 9.58249 15.283 11.5342C15.283 11.8113 15.3129 12.0802 15.3728 12.3392C12.4743 12.1914 9.90496 10.7858 8.18361 8.6451C7.88332 9.16892 7.7116 9.77661 7.7116 10.4238C7.7116 11.6494 8.32731 12.7313 9.26322 13.3654C8.69254 13.3482 8.15359 13.1874 7.68265 12.9245V12.968C7.68265 14.6809 8.88498 16.1097 10.4815 16.4334C10.1892 16.5163 9.88079 16.5578 9.56244 16.5578C9.33799 16.5578 9.11846 16.5366 8.90583 16.4951C9.34981 17.8987 10.637 18.921 12.1637 18.9483C10.9702 19.8968 9.46563 20.462 7.83219 20.462C7.55076 20.462 7.27239 20.4459 7 20.4134C8.54366 21.4145 10.3776 22 12.3463 22C18.7622 22 22.2695 16.6153 22.2695 11.9446C22.2695 11.7909 22.2664 11.6372 22.2604 11.4865C22.9423 10.9881 23.534 10.3662 24 9.6573Z" fill="black"/>
</svg>
